<?xml version="1.0" encoding="UTF-8"?>
<svg id="Layer_1" data-name="Layer 1" xmlns="http://www.w3.org/2000/svg" viewBox="0 0 1280 200">
  <defs>
    <style>
      .cls-1, .cls-2 {
        stroke-width: 0px;
      }

      .cls-2 {
        fill: #231f20;
      }
    </style>
  </defs>
  <polygon class="cls-1" points="289.52 94.5 253.03 157.72 172.3 17.89 333.75 17.89 319.06 43.35 326.37 56.01 355.82 5 136.61 5 246.22 194.84 296.83 107.16 289.52 94.5"/>
  <g>
    <path class="cls-2" d="m332.02,86.59c4.31-3.97,9.29-6.94,14.96-8.92,5.67-1.98,11.33-2.98,17-2.98s10.96.74,15.21,2.21c4.25,1.47,7.73,3.46,10.46,5.95,2.72,2.49,4.73,5.35,6.04,8.58,1.3,3.23,1.95,6.6,1.95,10.11v41.14c0,2.83.06,5.44.17,7.82.11,2.38.28,4.65.51,6.8h-13.6c-.34-4.08-.51-8.16-.51-12.24h-.34c-3.4,5.21-7.42,8.9-12.07,11.05-4.65,2.15-10.03,3.23-16.15,3.23-3.74,0-7.31-.51-10.71-1.53-3.4-1.02-6.38-2.55-8.93-4.59-2.55-2.04-4.56-4.56-6.03-7.56-1.47-3-2.21-6.49-2.21-10.46,0-5.21,1.16-9.58,3.48-13.09,2.32-3.51,5.5-6.38,9.52-8.58,4.02-2.21,8.73-3.79,14.11-4.76,5.38-.96,11.14-1.45,17.25-1.45h11.22v-3.4c0-2.04-.4-4.08-1.19-6.12-.79-2.04-1.98-3.88-3.57-5.53-1.59-1.64-3.57-2.95-5.95-3.91-2.38-.96-5.21-1.44-8.5-1.44-2.95,0-5.53.28-7.74.85-2.21.57-4.22,1.27-6.04,2.12-1.81.85-3.46,1.84-4.93,2.98-1.47,1.13-2.89,2.21-4.25,3.23l-9.18-9.52Zm43.18,31.96c-3.63,0-7.34.2-11.13.59-3.8.4-7.25,1.16-10.37,2.29-3.12,1.13-5.67,2.72-7.65,4.76-1.98,2.04-2.97,4.65-2.97,7.82,0,4.65,1.56,7.99,4.67,10.03,3.12,2.04,7.34,3.06,12.67,3.06,4.19,0,7.76-.71,10.71-2.12,2.95-1.42,5.33-3.26,7.14-5.52,1.81-2.27,3.12-4.79,3.91-7.57.79-2.78,1.19-5.53,1.19-8.25v-5.1h-8.16Z"/>
    <path class="cls-2" d="m500.66,157.31h-15.3v-11.56h-.34c-2.95,4.31-7,7.65-12.16,10.03-5.16,2.38-10.46,3.57-15.89,3.57-6.23,0-11.87-1.08-16.92-3.23-5.04-2.15-9.35-5.16-12.92-9.01-3.57-3.85-6.32-8.33-8.25-13.43-1.93-5.1-2.89-10.65-2.89-16.66s.96-11.59,2.89-16.74c1.93-5.16,4.67-9.63,8.25-13.43,3.57-3.8,7.88-6.77,12.92-8.93,5.04-2.15,10.68-3.23,16.92-3.23,5.78,0,11.22,1.22,16.32,3.66,5.1,2.44,9.01,5.75,11.73,9.94h.34V28.79h15.3v128.52Zm-41.82-12.24c4.08,0,7.76-.71,11.05-2.12,3.29-1.42,6.06-3.34,8.33-5.78,2.27-2.44,4.02-5.38,5.27-8.84,1.25-3.46,1.87-7.22,1.87-11.3s-.62-7.85-1.87-11.3c-1.25-3.46-3-6.4-5.27-8.84-2.27-2.44-5.04-4.36-8.33-5.78-3.29-1.42-6.97-2.12-11.05-2.12s-7.76.71-11.05,2.12c-3.29,1.42-6.06,3.34-8.33,5.78-2.27,2.44-4.02,5.38-5.27,8.84-1.25,3.46-1.87,7.22-1.87,11.3s.62,7.85,1.87,11.3c1.25,3.46,3,6.4,5.27,8.84,2.27,2.44,5.04,4.36,8.33,5.78,3.29,1.42,6.97,2.12,11.05,2.12Z"/>
    <path class="cls-2" d="m523.78,76.73h15.3v12.41h.34c1.02-2.15,2.38-4.11,4.08-5.87,1.7-1.76,3.6-3.26,5.69-4.5,2.1-1.25,4.39-2.24,6.89-2.98,2.49-.74,4.99-1.1,7.48-1.1s4.76.34,6.8,1.02l-.68,16.49c-1.25-.34-2.49-.62-3.74-.85-1.25-.23-2.49-.34-3.74-.34-7.48,0-13.21,2.1-17.17,6.29-3.97,4.19-5.95,10.71-5.95,19.55v40.46h-15.3v-80.58Z"/>
    <path class="cls-2" d="m587.02,86.59c4.31-3.97,9.29-6.94,14.96-8.92,5.67-1.98,11.33-2.98,17-2.98s10.96.74,15.21,2.21c4.25,1.47,7.73,3.46,10.45,5.95,2.72,2.49,4.73,5.35,6.04,8.58,1.3,3.23,1.95,6.6,1.95,10.11v41.14c0,2.83.06,5.44.17,7.82.11,2.38.28,4.65.51,6.8h-13.6c-.34-4.08-.51-8.16-.51-12.24h-.34c-3.4,5.21-7.42,8.9-12.07,11.05-4.65,2.15-10.03,3.23-16.15,3.23-3.74,0-7.31-.51-10.71-1.53-3.4-1.02-6.38-2.55-8.93-4.59-2.55-2.04-4.56-4.56-6.03-7.56-1.47-3-2.21-6.49-2.21-10.46,0-5.21,1.16-9.58,3.48-13.09,2.32-3.51,5.5-6.38,9.52-8.58,4.02-2.21,8.73-3.79,14.11-4.76,5.38-.96,11.14-1.45,17.25-1.45h11.22v-3.4c0-2.04-.4-4.08-1.19-6.12-.79-2.04-1.98-3.88-3.57-5.53-1.59-1.64-3.57-2.95-5.95-3.91-2.38-.96-5.21-1.44-8.5-1.44-2.95,0-5.53.28-7.74.85-2.21.57-4.22,1.27-6.04,2.12-1.81.85-3.46,1.84-4.93,2.98-1.47,1.13-2.89,2.21-4.25,3.23l-9.18-9.52Zm43.18,31.96c-3.63,0-7.34.2-11.13.59-3.8.4-7.25,1.16-10.37,2.29-3.12,1.13-5.67,2.72-7.65,4.76-1.98,2.04-2.97,4.65-2.97,7.82,0,4.65,1.56,7.99,4.67,10.03,3.12,2.04,7.34,3.06,12.67,3.06,4.19,0,7.76-.71,10.71-2.12,2.95-1.42,5.33-3.26,7.14-5.52,1.81-2.27,3.12-4.79,3.91-7.57.79-2.78,1.19-5.53,1.19-8.25v-5.1h-8.16Z"/>
    <path class="cls-2" d="m755.66,156.63c0,6.12-1.05,11.7-3.14,16.75-2.1,5.04-5.07,9.41-8.92,13.09-3.85,3.68-8.5,6.54-13.94,8.58-5.44,2.04-11.45,3.06-18.02,3.06-7.71,0-14.76-1.08-21.17-3.23-6.4-2.15-12.5-5.89-18.28-11.22l10.37-12.92c3.97,4.31,8.27,7.57,12.92,9.78,4.65,2.21,9.92,3.31,15.81,3.31s10.37-.82,14.11-2.46c3.74-1.64,6.71-3.77,8.92-6.38,2.21-2.61,3.77-5.58,4.68-8.92.91-3.34,1.36-6.71,1.36-10.12v-11.9h-.51c-2.95,4.87-6.94,8.47-11.99,10.79-5.04,2.32-10.34,3.48-15.89,3.48-5.89,0-11.36-1.05-16.41-3.14-5.04-2.1-9.38-4.99-13-8.67-3.63-3.68-6.46-8.05-8.5-13.09-2.04-5.04-3.06-10.51-3.06-16.41s.96-11.42,2.89-16.57c1.93-5.16,4.67-9.66,8.25-13.51,3.57-3.85,7.88-6.86,12.92-9.01,5.04-2.15,10.68-3.23,16.92-3.23,5.44,0,10.74,1.19,15.89,3.57,5.16,2.38,9.21,5.72,12.16,10.03h.34v-11.56h15.3v79.9Zm-41.82-67.66c-4.08,0-7.76.71-11.05,2.12-3.29,1.42-6.06,3.34-8.33,5.78-2.27,2.44-4.02,5.38-5.27,8.84-1.25,3.46-1.87,7.22-1.87,11.3,0,8.16,2.38,14.71,7.14,19.63,4.76,4.93,11.22,7.4,19.38,7.4s14.62-2.46,19.38-7.4c4.76-4.93,7.14-11.47,7.14-19.63,0-4.08-.62-7.85-1.87-11.3-1.25-3.46-3-6.4-5.27-8.84-2.27-2.44-5.04-4.36-8.33-5.78-3.29-1.42-6.97-2.12-11.05-2.12Z"/>
    <path class="cls-2" d="m774.87,117.02c0-5.89,1.1-11.39,3.31-16.49,2.21-5.1,5.24-9.58,9.09-13.43,3.85-3.85,8.39-6.89,13.6-9.1,5.21-2.21,10.82-3.31,16.83-3.31s11.62,1.1,16.83,3.31c5.21,2.21,9.75,5.24,13.6,9.1,3.85,3.85,6.88,8.33,9.09,13.43,2.21,5.1,3.32,10.6,3.32,16.49s-1.11,11.42-3.32,16.58c-2.21,5.16-5.24,9.63-9.09,13.43-3.85,3.8-8.39,6.8-13.6,9.01-5.21,2.21-10.82,3.32-16.83,3.32s-11.62-1.11-16.83-3.32c-5.21-2.21-9.75-5.21-13.6-9.01-3.85-3.8-6.88-8.27-9.09-13.43-2.21-5.16-3.31-10.68-3.31-16.58Zm16.32,0c0,4.08.62,7.85,1.87,11.3,1.25,3.46,3,6.4,5.27,8.84,2.27,2.44,5.04,4.36,8.33,5.78,3.29,1.42,6.97,2.12,11.05,2.12s7.76-.71,11.05-2.12c3.29-1.42,6.06-3.34,8.33-5.78,2.27-2.44,4.02-5.38,5.27-8.84,1.25-3.46,1.87-7.22,1.87-11.3s-.62-7.85-1.87-11.3c-1.25-3.46-3-6.4-5.27-8.84-2.27-2.44-5.04-4.36-8.33-5.78-3.29-1.42-6.97-2.12-11.05-2.12s-7.76.71-11.05,2.12c-3.29,1.42-6.06,3.34-8.33,5.78-2.27,2.44-4.02,5.38-5.27,8.84-1.25,3.46-1.87,7.22-1.87,11.3Z"/>
    <path class="cls-2" d="m922.6,96.96c-1.81-2.27-4.05-4.17-6.72-5.7-2.66-1.53-5.92-2.29-9.77-2.29-3.63,0-6.77.76-9.44,2.29-2.66,1.53-3.99,3.77-3.99,6.71,0,2.38.76,4.31,2.29,5.78,1.53,1.47,3.34,2.66,5.44,3.57,2.1.91,4.33,1.59,6.71,2.04,2.38.46,4.42.85,6.12,1.19,3.29.79,6.38,1.76,9.27,2.89,2.89,1.13,5.38,2.61,7.48,4.42,2.1,1.81,3.74,4.02,4.93,6.63,1.19,2.61,1.79,5.78,1.79,9.52,0,4.53-.96,8.42-2.89,11.65-1.93,3.23-4.42,5.86-7.48,7.9-3.06,2.04-6.54,3.51-10.46,4.42-3.91.91-7.85,1.36-11.81,1.36-6.69,0-12.55-1.02-17.59-3.06-5.04-2.04-9.55-5.78-13.52-11.22l11.56-9.52c2.49,2.49,5.27,4.7,8.33,6.63,3.06,1.93,6.8,2.89,11.22,2.89,1.93,0,3.88-.2,5.87-.59,1.98-.4,3.74-1.02,5.27-1.87s2.78-1.93,3.74-3.23c.96-1.3,1.45-2.81,1.45-4.51,0-2.27-.71-4.14-2.12-5.61-1.42-1.47-3.12-2.63-5.1-3.49-1.98-.85-4.08-1.53-6.29-2.04s-4.17-.93-5.87-1.27c-3.29-.79-6.4-1.7-9.35-2.72-2.95-1.02-5.55-2.38-7.82-4.08-2.27-1.7-4.08-3.85-5.44-6.46-1.36-2.61-2.04-5.83-2.04-9.69,0-4.19.88-7.85,2.63-10.97,1.76-3.12,4.08-5.69,6.97-7.73,2.89-2.04,6.18-3.57,9.86-4.59,3.68-1.02,7.39-1.53,11.13-1.53,5.44,0,10.65,1.02,15.64,3.06,4.99,2.04,8.95,5.44,11.9,10.2l-11.9,9.01Z"/>
    <path class="cls-2" d="m967.3,158.33c-3.06,0-5.7-1.1-7.91-3.31s-3.31-4.84-3.31-7.91,1.1-5.69,3.31-7.91c2.21-2.21,4.85-3.31,7.91-3.31s5.7,1.1,7.91,3.31c2.21,2.21,3.31,4.85,3.31,7.91s-1.1,5.7-3.31,7.91-4.84,3.31-7.91,3.31Z"/>
    <path class="cls-2" d="m1002.49,76.73h15.3v12.41h.34c1.02-2.15,2.38-4.11,4.08-5.87,1.7-1.76,3.6-3.26,5.69-4.5,2.1-1.25,4.39-2.24,6.89-2.98,2.49-.74,4.99-1.1,7.48-1.1s4.76.34,6.8,1.02l-.68,16.49c-1.25-.34-2.49-.62-3.74-.85-1.25-.23-2.49-.34-3.74-.34-7.48,0-13.21,2.1-17.17,6.29-3.97,4.19-5.95,10.71-5.95,19.55v40.46h-15.3v-80.58Z"/>
    <path class="cls-2" d="m1058.42,117.02c0-5.89,1.1-11.39,3.31-16.49,2.21-5.1,5.24-9.58,9.09-13.43,3.85-3.85,8.39-6.89,13.6-9.1,5.21-2.21,10.82-3.31,16.83-3.31s11.62,1.1,16.83,3.31c5.21,2.21,9.75,5.24,13.6,9.1,3.85,3.85,6.88,8.33,9.09,13.43,2.21,5.1,3.32,10.6,3.32,16.49s-1.11,11.42-3.32,16.58c-2.21,5.16-5.24,9.63-9.09,13.43-3.85,3.8-8.39,6.8-13.6,9.01-5.21,2.21-10.82,3.32-16.83,3.32s-11.62-1.11-16.83-3.32c-5.21-2.21-9.75-5.21-13.6-9.01-3.85-3.8-6.88-8.27-9.09-13.43-2.21-5.16-3.31-10.68-3.31-16.58Zm16.32,0c0,4.08.62,7.85,1.87,11.3,1.25,3.46,3,6.4,5.27,8.84,2.27,2.44,5.04,4.36,8.33,5.78,3.29,1.42,6.97,2.12,11.05,2.12s7.76-.71,11.05-2.12c3.29-1.42,6.06-3.34,8.33-5.78,2.27-2.44,4.02-5.38,5.27-8.84,1.25-3.46,1.87-7.22,1.87-11.3s-.62-7.85-1.87-11.3c-1.25-3.46-3-6.4-5.27-8.84-2.27-2.44-5.04-4.36-8.33-5.78-3.29-1.42-6.97-2.12-11.05-2.12s-7.76.71-11.05,2.12c-3.29,1.42-6.06,3.34-8.33,5.78-2.27,2.44-4.02,5.38-5.27,8.84-1.25,3.46-1.87,7.22-1.87,11.3Z"/>
  </g>
</svg>